<?xml version="1.0" encoding="utf-8"?>
<!-- Generator: Adobe Illustrator 25.2.0, SVG Export Plug-In . SVG Version: 6.00 Build 0)  -->
<svg version="1.1" id="Capa_1" xmlns="http://www.w3.org/2000/svg" xmlns:xlink="http://www.w3.org/1999/xlink" x="0px" y="0px"
	 viewBox="0 0 512 512" style="enable-background:new 0 0 512 512;" xml:space="preserve">
<style type="text/css">
	.st0{fill:#6AC3DD;}
</style>
<path class="st0" d="M512,127.5v-8.1c0-30.4-24.7-55.2-55.2-55.2H55.2C24.7,64.3,0,89,0,119.4v8.1v0.1v265
	c0,30.4,24.7,55.2,55.2,55.2h401.7c30.4,0,55.2-24.7,55.2-55.2V127.5C512,127.6,512,127.5,512,127.5L512,127.5z M55.2,94.3h401.7
	c13.9,0,25.2,11.3,25.2,25.2v0L281.1,253.4c-13.4,8.9-36.8,8.9-50.2,0L30,119.4v0C30,105.6,41.3,94.3,55.2,94.3L55.2,94.3z
	 M456.8,417.7H55.2c-13.9,0-25.2-11.3-25.2-25.2V155.5l184.3,122.8C226,286.1,241,290,256,290c15,0,30-3.9,41.7-11.7L482,155.5
	v237.1C482,406.4,470.7,417.7,456.8,417.7z"/>
</svg>
